Coordinates
version=1
nRows=11
nColumns=40
inDegrees=yes

Units are S.I. units (second, meters, Newtons, ...)
Angles are in degrees.

endheader
time	pelvis_tilt	pelvis_list	pelvis_rotation	pelvis_tx	pelvis_ty	pelvis_tz	hip_flexion_r	hip_adduction_r	hip_rotation_r	knee_angle_r	knee_angle_r_beta	ankle_angle_r	subtalar_angle_r	mtp_angle_r	hip_flexion_l	hip_adduction_l	hip_rotation_l	knee_angle_l	knee_angle_l_beta	ankle_angle_l	subtalar_angle_l	mtp_angle_l	lumbar_extension	lumbar_bending	lumbar_rotation	arm_flex_r	arm_add_r	arm_rot_r	elbow_flex_r	pro_sup_r	wrist_flex_r	wrist_dev_r	arm_flex_l	arm_add_l	arm_rot_l	elbow_flex_l	pro_sup_l	wrist_flex_l	wrist_dev_l
      3.70664286	     -6.43300694	     -7.32270036	     -1.92887496	      0.90278692	      0.91468319	      0.54625441	     -1.11455495	      5.72845525	    -17.34891405	      7.69513837	      7.69513837	     15.76851302	      6.45899022	     -4.83443199	     36.06927512	    -13.20203408	     -2.57938567	     22.12918262	     22.12918262	      7.59688357	    -11.63775692	     13.49683507	    -10.77862560	      7.21870318	      2.94304353	     52.57383063	    -13.41971352	      9.53671681	    109.33597806	     43.76645802	      0.00000000	      0.00000000	    -14.58823328	     -6.00309147	     -6.60199252	     27.76798599	     46.55931116	      0.00000000	      0.00000000
      3.71828571	     -6.28440885	     -7.22249658	     -2.30111768	      0.90489750	      0.91305885	      0.54430457	     -1.74743180	      5.34251262	    -16.67969876	      8.26175610	      8.26175610	     17.03539660	      6.23893098	     -3.14530116	     35.10355676	    -13.02305643	     -2.89730028	     22.09177442	     22.09177442	      4.95468409	    -13.19278924	      9.43117543	    -10.56146569	      6.95314794	      3.08313220	     51.31328242	    -13.91454848	      9.44003382	    110.80724735	     43.78622953	      0.00000000	      0.00000000	    -15.56501225	     -5.98765262	     -6.47379929	     29.44848321	     46.49456197	      0.00000000	      0.00000000
      3.72992857	     -6.18256675	     -7.13900698	     -2.54733355	      0.90686475	      0.91148593	      0.54213084	     -2.45463563	      4.99492580	    -16.36723621	      8.48696761	      8.48696761	     17.57156911	      6.24760042	     -3.23066174	     34.59638228	    -12.91481832	     -3.30428506	     22.82828804	     22.82828804	      4.26897351	    -13.49891209	      9.32976487	    -10.21281870	      6.80378567	      2.81898754	     50.40360791	    -13.96089572	      9.55340476	    110.69312845	     43.78817444	      0.00000000	      0.00000000	    -15.78155530	     -5.88424850	     -6.42099556	     29.29900718	     46.48139651	      0.00000000	      0.00000000
      3.74157143	     -6.10935117	     -7.04536617	     -2.78205398	      0.90872370	      0.90999867	      0.53977079	     -2.89565382	      4.57095877	    -15.87355233	      9.18106032	      9.18106032	     18.57642610	      5.92062481	     -1.98565006	     34.05830442	    -12.74459331	     -3.49219324	     23.34597271	     23.34597271	      2.32557012	    -14.51519916	      6.16192447	     -9.89271149	      6.69507218	      2.86591037	     49.07486336	    -14.32686620	      9.19681008	    111.18933983	     43.86295451	      0.00000000	      0.00000000	    -15.51408195	     -5.88567607	     -6.06711581	     28.73911242	     46.41629160	      0.00000000	      0.00000000
      3.75321429	     -5.94881713	     -6.90519472	     -2.94147054	      0.91040606	      0.90900262	      0.53716404	     -3.57691607	      4.11370597	    -15.58419590	      9.49229029	      9.49229029	     18.97580267	      5.85369740	     -2.10317348	     33.66290815	    -12.53565788	     -3.70104262	     24.30207495	     24.30207495	      1.93713898	    -14.85843554	      6.13665307	     -9.77868471	      6.57454054	      2.40943541	     48.10451162	    -14.45188657	      9.29743007	    111.07801546	     43.86159748	      0.00000000	      0.00000000	    -15.38499041	     -5.78124272	     -6.03786429	     28.75544728	     46.41316796	      0.00000000	      0.00000000
      3.76485714	     -5.89118662	     -6.71161863	     -3.11299054	      0.91195263	      0.90791041	      0.53452121	     -3.64562012	      3.47502897	    -15.18425229	     10.75759745	     10.75759745	     19.47630956	      5.16129716	     -2.12619015	     33.61070563	    -12.24203151	     -3.52814933	     25.67250940	     25.67250940	      1.88513203	    -15.53988159	      5.72542110	     -9.46002896	      6.30059005	      2.31546589	     46.32616180	    -14.77264273	      9.21384248	    111.08320181	     43.87312857	      0.00000000	      0.00000000	    -15.10306135	     -5.84593372	     -6.01418625	     28.56168658	     46.41217479	      0.00000000	      0.00000000
      3.77650000	     -5.75014665	     -6.49635349	     -3.24540525	      0.91336568	      0.90748426	      0.53163189	     -3.81610498	      2.82054829	    -14.76299583	     11.94015867	     11.94015867	     19.83229778	      4.41513732	     -2.01739728	     33.39099709	    -11.90902344	     -3.47181686	     26.86060428	     26.86060428	      2.06604770	    -16.06493399	      5.55684604	     -9.36149758	      6.05606239	      2.27328199	     44.47065840	    -15.24481555	      8.80387701	    111.20986001	     43.89834650	      0.00000000	      0.00000000	    -14.39812119	     -5.90176601	     -5.93128189	     28.14999914	     46.40902670	      0.00000000	      0.00000000
      3.78814286	     -5.61148973	     -6.29552520	     -3.33961236	      0.91464809	      0.90743344	      0.52857552	     -3.88080253	      2.14630553	    -14.44018828	     13.28045771	     13.28045771	     19.98123125	      3.71325472	     -2.12306204	     33.15799844	    -11.55784852	     -3.37443203	     27.99541518	     27.99541518	      2.62371586	    -16.45533411	      5.52130730	     -9.30115922	      5.85096775	      2.15834414	     42.46539818	    -15.65885072	      8.48473268	    111.03328220	     43.92402444	      0.00000000	      0.00000000	    -13.60309942	     -5.95437461	     -5.83847869	     27.80478279	     46.40661953	      0.00000000	      0.00000000
      3.79978571	     -5.47394525	     -6.08879002	     -3.42849646	      0.91576364	      0.90782215	      0.52542072	     -3.74694288	      1.42028086	    -14.16679069	     14.93753917	     14.93753917	     19.91343996	      2.85104908	     -2.42139019	     32.83634156	    -11.18617271	     -3.31664635	     28.96292086	     28.96292086	      3.39434998	    -16.74563491	      5.58371071	     -9.29291545	      5.63799683	      2.04847545	     40.31476718	    -16.05555385	      8.16905519	    110.61715189	     43.95267904	      0.00000000	      0.00000000	    -12.71409141	     -6.01970013	     -5.74648396	     27.53268968	     46.40640369	      0.00000000	      0.00000000
      3.81142857	     -5.36244630	     -5.91408443	     -3.52029490	      0.91667092	      0.90862102	      0.52220104	     -3.40278837	      0.74869456	    -13.65357488	     16.83298648	     16.83298648	     19.31018789	      1.30436492	     -3.48994765	     32.51235344	    -10.80639496	     -3.21100516	     29.88058241	     29.88058241	      4.86984611	    -16.88731571	      7.16171937	     -9.29824215	      5.48627864	      2.55124001	     37.37613022	    -16.65537592	      6.51125950	    110.76915411	     44.04501268	      0.00000000	      0.00000000	    -10.91834286	     -6.14960942	     -5.32906616	     26.02120048	     46.36750527	      0.00000000	      0.00000000
      3.82307143	     -5.24776717	     -5.72416878	     -3.62803228	      0.91744628	      0.90970806	      0.51893679	     -2.74278594	     -0.07579436	    -13.50742660	     19.33508483	     19.33508483	     18.81507410	      0.22786849	     -4.12958890	     31.95661043	    -10.44795220	     -3.33910934	     30.36659822	     30.36659822	      5.75125623	    -16.97721197	      6.97552189	     -9.33772951	      5.31267021	      2.34289565	     35.07038761	    -17.01870264	      6.52789230	    109.67941016	     44.07943237	      0.00000000	      0.00000000	    -10.02793178	     -6.24879686	     -5.27306743	     26.20370516	     46.37195847	      0.00000000	      0.00000000
